# xmcd CD database file
#
# Track frame offsets:
#	150
#	17930
#	40731
#	58510
#
# Disc length: 1081 seconds
#
# Revision: 0
# Processed by: cddbd v1.5.1PL2 Copyright (c) Steve Scherf et al.
# Submitted via: CDex 1.51
#
DISCID=2b043704
DTITLE=影山ヒロノブ - On The Road RADIODRIVE
DYEAR=2001
DGENRE=ゲーム
TTITLE0=On The Road
TTITLE1=After Grow
TTITLE2=On The Road(offvocal)
TTITLE3=After Grow(offvocal)
EXTD=YEAR: 2001
EXTT0=
EXTT1=
EXTT2=
EXTT3=
PLAYORDER=
